<svg id="Capa_1" enable-background="new 0 0 512 512" height="512" viewBox="0 0 512 512" width="512" xmlns="http://www.w3.org/2000/svg"><g><g><path d="m479.5 252h-67.5v65h67.5c17.949 0 32.5-14.551 32.5-32.5 0-17.949-14.551-32.5-32.5-32.5z" fill="#424c52"/><path d="m74.5 252h67.5v65h-67.5c-17.949 0-32.5-14.551-32.5-32.5 0-17.949 14.551-32.5 32.5-32.5z" fill="#5f6c75"/><path d="m418.362 242.448c-6.678-26.71-30.677-45.448-58.209-45.448h-166.306c-27.532 0-51.531 18.738-58.209 45.448l-18.638 74.552h320z" fill="#bdfdff"/><g><path d="m418.362 242.448c-6.678-26.71-30.677-45.448-58.209-45.448h-83.153v120h160z" fill="#aed0ff"/></g><path d="m426.086 335.19-22.276-89.104c-5.018-20.069-22.97-34.086-43.657-34.086h-166.306c-20.687 0-38.639 14.017-43.656 34.085l-22.276 89.104-29.104-7.276 22.276-89.104c8.362-33.449 38.282-56.81 72.761-56.81h166.307c34.479 0 64.399 23.361 72.761 56.81l22.276 89.104z" fill="#ff8e00"/><g><path d="m432.914 238.81c-8.362-33.449-38.282-56.81-72.761-56.81h-83.153v30h83.153c20.687 0 38.639 14.017 43.656 34.086l22.276 89.104 29.104-7.276z" fill="#ff6326"/></g><path d="m392 332c-8.284 0-15-6.716-15-15 0-19.299-15.701-35-35-35s-35 15.701-35 35c0 8.284-6.716 15-15 15s-15-6.716-15-15c0-35.841 29.159-65 65-65s65 29.159 65 65c0 8.284-6.716 15-15 15z" fill="#424c52"/><path d="m169.5 512h-35c-13.807 0-25-11.193-25-25v-65h85v65c0 13.807-11.193 25-25 25z" fill="#5f6c75"/><path d="m419.5 512h-35c-13.807 0-25-11.193-25-25v-65h85v65c0 13.807-11.193 25-25 25z" fill="#424c52"/><path d="m447 452h-105-130-105c-24.853 0-45-20.147-45-45v-60c0-24.853 20.147-45 45-45h340c24.853 0 45 20.147 45 45v60c0 24.853-20.147 45-45 45z" fill="#ff8e00"/><g><path d="m447 302h-170v150h170c24.853 0 45-20.147 45-45v-60c0-24.853-20.147-45-45-45z" fill="#ff6326"/></g><path d="m432 392h-30c-8.284 0-15-6.716-15-15s6.716-15 15-15h30c8.284 0 15 6.716 15 15s-6.716 15-15 15z" fill="#ffb454"/><path d="m150 386h-30c-8.284 0-15-6.716-15-15s6.716-15 15-15h30c8.284 0 15 6.716 15 15s-6.716 15-15 15z" fill="#ffdd54"/><path d="m342 422h-130v-35c0-13.807 11.193-25 25-25h80c13.807 0 25 11.193 25 25z" fill="#f1f1f4"/><g><g><path d="m342 387c0-13.807-11.193-25-25-25h-40v60h65z" fill="#e2dff4"/></g></g></g><g><path d="m358.756 139.096h-216.256c-4.142 0-7.5-3.358-7.5-7.5v-70c0-4.142 3.358-7.5 7.5-7.5h125.048c6.007 0 11.434 3.583 13.794 9.107l6.109 14.301h30.097l6.109-14.301c2.36-5.524 7.787-9.107 13.794-9.107h37.549c8.284 0 15 6.716 15 15v33.402c0 3.253-1.057 6.417-3.012 9.016l-16.243 21.597c-2.819 3.748-7.301 5.985-11.989 5.985z" fill="#f1f1f4"/><g><path d="m135 96.596v35c0 4.142 3.358 7.5 7.5 7.5h216.256c4.688 0 9.169-2.237 11.988-5.984l16.243-21.597c1.955-2.599 3.012-5.764 3.012-9.016v-5.902h-254.999z" fill="#e2dff4"/></g><path d="m207.5 54.096v27.5c0 8.284 6.716 15 15 15s15-6.716 15-15v-27.5z" fill="#e2dff4"/><path d="m44.899 193.193c-9.9 0-19.565-3.283-27.593-9.551-10.998-8.587-17.306-21.515-17.306-35.469v-36.577l10-15-10-15v-36.577c0-13.954 6.308-26.881 17.307-35.469s25.071-11.57 38.607-8.187l67.575 16.894c15.609 3.902 26.511 17.864 26.511 33.955v88.769c0 16.089-10.902 30.052-26.511 33.955l-67.575 16.894c-3.656.914-7.352 1.363-11.015 1.363z" fill="#5f6c75"/><g><path d="m10 96.596-10 15v36.577c0 13.954 6.308 26.882 17.306 35.469 8.028 6.268 17.693 9.551 27.593 9.551 3.663 0 7.358-.449 11.015-1.363l67.575-16.894c15.609-3.903 26.511-17.866 26.511-33.955v-44.385z" fill="#424c52"/></g><path d="m45 81.596h-45v30h45c8.284 0 15-6.716 15-15s-6.716-15-15-15z" fill="#424c52"/><g><g><path d="m0 96.596v15h45c8.284 0 15-6.716 15-15z" fill="#2d2d2d"/></g></g></g></g></svg>